<svg height="113.137085" viewBox="0 0 999.99998 128.11316" width="883.883476" xmlns="http://www.w3.org/2000/svg"><g fill="#ff5a00"><path d="m133.30004.00538925c-17.53309.23002676-35.13902 5.24710215-47.023672 9.66872775-41.014986 15.04113-65.243513 39.169149-79.2495873 65.864969-15.0730787 26.465854-6.47205857 51.762604 31.3928383 52.574084 25.437063-1.02234 42.408948-7.37919 58.798355-15.74322.888159-.45367.391046-1.8059-.580178-1.5631-15.156208 3.75711-50.396756 10.95177-66.754214 2.13408-2.178865-1.16292-4.605392-2.81221-5.653291-7.29128-1.130965-9.450263 13.529727-19.235666 21.97682-22.379365l-1.750312-16.370302c6.741063 2.523905 13.935725 3.903043 21.302971 3.903043 13.967672 0 26.234488-4.975926 35.33326-13.24411.56229 1.329043 1.01442 2.824537 1.26361 4.5114h3.96854c.0511-4.197989-2.64882-7.534655-2.64882-7.534655-4.166041-5.648371-10.370694-5.550354-10.370694-5.550354s2.944343 1.395177 5.512975 4.698616c-21.041059 18.60661-47.360658 9.453461-47.360658 9.453461l10.829277-12.046118-4.576957-9.331738c25.021736-9.092447 46.108677-16.085261 81.027947-22.257645l-8.68594-6.654802 3.88433-2.564607c22.06333 6.044592 36.56946 10.491904 37.07424 21.827112-.15974 1.884941-.56293 4.071793-1.45077 6.589308-4.91362 12.357485-21.30456 32.997083-27.89228 41.623087-4.35134 5.712331-8.60868 11.311886-11.50319 16.679177-3.00312 5.360902-4.6613 10.364752-4.25875 15.144192-.22364 28.01848 49.85383 4.58712 72.47306-10.49235.72842-.48561.16613-1.60386-.66452-1.32911-63.5256 21.11129-48.54938-2.44288-48.54938-2.44288 13.431-18.906922 36.70626-47.166924 35.6328-65.81826-.984-24.3636045-26.33538-32.30016678-51.49769-32.05736075z"/><path d="m714.07544 86.832825c0 12.33199-6.24906 18.497985-18.74079 18.497985-8.00621 0-12.00612-2.92645-12.00612-8.798524 0-5.322563 4.21716-8.715458 12.61952-10.185073 3.10536-.543119 9.14357-.817873 18.12739-.817873zm35.23882-16.990033c0-21.398878-16.2041-31.44977-47.94141-32.107902-33.07912-.683691-47.05325 7.929534-49.83274 26.018583h34.29955c1.65491-5.891241 5.61648-9.188291 13.82716-8.900758 8.07011.287533 14.07636 4.383288 14.37667 15.105091-18.45965.274754-32.05678 1.348212-41.39204 3.584583-18.01237 4.319392-26.96424 14.140257-26.96424 27.500981 0 9.00299 3.98713 15.57792 11.93583 19.70562 5.98708 3.09258 13.75688 4.97753 23.30299 4.64527 15.64182-.54312 26.91313-5.00309 33.897-14.22972v12.35755h34.50401z"/><path d="m964.75477 86.832825c0 12.33199-6.25545 18.497985-18.74079 18.497985-8.00621 0-12.00612-2.92645-12.00612-8.798524 0-5.322563 4.21077-8.715458 12.61953-10.185073 3.10536-.543119 9.13717-.817873 18.12738-.817873zm35.23882-16.990033c0-21.398878-16.21049-31.44977-47.94141-32.107902-33.08551-.683691-47.05964 7.929534-49.83274 26.018583h34.29955c1.65491-5.891241 5.61648-9.188291 13.82716-8.900758 8.06372.287533 14.06997 4.383288 14.37029 15.105091-18.45326.274754-32.05679 1.348212-41.39204 3.584583-18.00599 4.319392-26.95786 14.140257-26.95786 27.500981 0 9.00299 3.98074 15.57792 11.92944 19.70562 5.99348 3.09258 13.76327 4.97753 23.30299 4.64527 15.64821-.54312 26.91952-5.00309 33.897-14.22972v12.35755h34.50401z"/><path d="m286.30553 76.009426 19.57145-43.564513 18.53632 43.564513zm.14057-72.0047659-59.7175 119.6522499h38.77229l9.47582-21.565h59.71751l8.81769 21.565h43.02778l-56.96357-119.6522499z"/><path d="m397.64232 123.65308h37.57743v-119.645864h-37.57743z"/><path d="m459.06641 4.0078125v23.7617185h37.57617v-23.7617185zm0 36.6894535v82.955074h37.57617v-82.955074z"/><path d="m591.61814 95.509945c-6.89442 9.488605-15.49486 11.590795-25.78856 6.325735-.54312-.35782-1.06068-.73481-1.56546-1.12457-3.23954-3.009521-5.30339-6.702728-6.18516-11.086016-1.32266-6.440749-1.11819-12.817602.6134-19.130559 1.2332-4.281054 3.62292-7.65478 7.18195-10.102009 4.08936-2.357774 8.4407-3.207595 13.03485-2.555853 6.42797 1.015952 10.95822 4.613315 13.60992 10.792089 1.63574 4.051027 2.42167 8.293743 2.35777 12.708979.0639 5.003082-1.02234 9.72502-3.25871 14.172204m-71.08466 28.184665h36.68927v-14.74088-.34504c9.71863 12.40228 21.9995 17.60344 36.91929 17.06671 8.31291-.42172 15.9613-3.30344 22.88767-8.14039 9.38636-7.49504 14.45973-17.36702 15.21371-29.628727 1.06707-12.625914-1.98718-24.069745-9.16912-34.344274-6.99026-8.657952-15.89741-13.635475-26.72783-14.907012-15.06037-1.993565-28.30608 2.971179-38.8298 14.395842v-48.9318045h-36.94485z"/><path d="m842.20482 95.509945c-6.89441 9.488605-15.49486 11.590795-25.78856 6.325735-.54311-.35782-1.06067-.73481-1.56546-1.12457-3.23954-3.009521-5.30339-6.702728-6.18516-11.086016-1.32265-6.440749-1.11819-12.817602.6134-19.130559 1.2332-4.281054 3.62293-7.65478 7.18195-10.102009 4.08937-2.357774 8.44071-3.207595 13.03485-2.555853 6.42797 1.015952 10.95822 4.613315 13.60353 10.792089 1.64213 4.051027 2.42806 8.293743 2.36416 12.708979.0639 5.003082-1.02234 9.72502-3.25871 14.172204m-71.08466 28.184665h36.68927v-14.74088-.34504c9.71863 12.40228 21.9995 17.60344 36.91929 17.06671 8.31292-.42172 15.96131-3.30344 22.88767-8.14039 9.38637-7.49504 14.45974-17.36702 15.21371-29.628727 1.06707-12.625914-1.98717-24.069745-9.16912-34.344274-6.99026-8.657952-15.89741-13.635475-26.72783-14.907012-15.06037-1.993565-28.30607 2.971179-38.8298 14.395842v-48.9318045h-36.94485z"/></g></svg>